<?xml version="1.0" encoding="UTF-8" standalone="no"?>
<svg
   height="128"
   width="128"
   version="1.1"
   id="svg7"
   sodipodi:docname="icon.svg"
   inkscape:version="1.3.2 (091e20ef0f, 2023-11-25, custom)"
   xmlns:inkscape="http://www.inkscape.org/namespaces/inkscape"
   xmlns:sodipodi="http://sodipodi.sourceforge.net/DTD/sodipodi-0.dtd"
   xmlns="http://www.w3.org/2000/svg"
   xmlns:svg="http://www.w3.org/2000/svg">
  <defs
     id="defs7" />
  <sodipodi:namedview
     id="namedview7"
     pagecolor="#ffffff"
     bordercolor="#000000"
     borderopacity="0.25"
     inkscape:showpageshadow="2"
     inkscape:pageopacity="0.0"
     inkscape:pagecheckerboard="0"
     inkscape:deskcolor="#d1d1d1"
     inkscape:zoom="2.7179417"
     inkscape:cx="73.401133"
     inkscape:cy="24.651007"
     inkscape:window-width="1280"
     inkscape:window-height="732"
     inkscape:window-x="0"
     inkscape:window-y="0"
     inkscape:window-maximized="1"
     inkscape:current-layer="layer1" />
  <rect
     style="fill:#bdbad8;fill-opacity:1;stroke-width:8.41323;stroke-linecap:round;stroke-linejoin:round;paint-order:stroke markers fill"
     id="rect7"
     width="128"
     height="128"
     x="0"
     y="0"
     ry="11.805812" />
  <g
     inkscape:groupmode="layer"
     id="layer1"
     inkscape:label="Layer 1">
    <path
       id="path15"
       style="fill:#a6d7ce;fill-opacity:1;stroke:none;stroke-width:2.22331;stroke-linecap:round;stroke-linejoin:round;stroke-dasharray:none;stroke-opacity:1"
       d="M 47.267578 92.884766 L 36.984375 128 L 86.462891 128 L 81.457031 95.037109 L 47.267578 92.884766 z " />
    <g
       id="path17-9-2"
       style="fill:#e7e0c6;fill-opacity:1">
      <path
         id="path13"
         style="color:#000000;fill:#e7e0c6;stroke-linecap:round;stroke-linejoin:round;-inkscape-stroke:none;fill-opacity:1"
         d="M 84.349609 117.71484 C 83.250966 119.18288 81.644034 122.82766 82.949219 128 L 97.792969 128 C 98.658274 125.29614 98.33093 121.8992 97.458984 119.45703 L 84.349609 117.71484 z " />
      <path
         style="color:#000000;fill:#e7e0c6;fill-opacity:1;stroke-linecap:round;stroke-linejoin:round;-inkscape-stroke:none"
         d="m 84.550781,116.20117 c -0.547779,-0.073 -1.092274,0.15555 -1.423828,0.59766 C 81.729767,118.66579 81.348714,128 81.348714,128 h 18.508708 c 0,0 0.02111,-6.30609 -0.960938,-9.05664 -0.192444,-0.53847 -0.669527,-0.92436 -1.236328,-1 z m 0.707031,3.17578 10.927735,1.45118 c 0.480232,1.75335 0.599252,3.80296 0.261719,5.64453 H 84.275391 c -0.581113,-3.52021 0.249365,-5.85223 0.982421,-7.09571 z"
         id="path16"
         sodipodi:nodetypes="cccccccccccc" />
    </g>
    <path
       style="fill:#e7e0c6;fill-opacity:1;stroke:#e7e0c6;stroke-width:3.05467;stroke-linecap:round;stroke-linejoin:round;stroke-dasharray:none;stroke-opacity:1"
       d="m 42.819384,109.4379 -12.328989,-5.37444 c -3.050067,1.99227 -4.184008,6.93119 -3.899273,10.43291 l 12.213158,5.07572 c 1.491049,-1.1729 4.111957,-4.45568 4.015111,-10.13422 z"
       id="path17-9-2-6"
       sodipodi:nodetypes="cccccc" />
    <path
       id="path19"
       style="fill:#dad0a6;fill-opacity:1;stroke:none;stroke-width:2.22331;stroke-linecap:round;stroke-linejoin:round;stroke-dasharray:none;stroke-opacity:1"
       d="M 98.173828 118.02148 C 96.108621 118.03023 95.055934 122.25018 94.716797 124.37109 C 94.553908 125.38979 94.414015 126.72525 94.457031 128 L 99.857422 128 C 100.05242 127.19258 100.18712 126.39182 100.27539 125.72852 C 100.599 123.29675 100.81078 118.34105 98.376953 118.0332 C 98.308215 118.02451 98.240448 118.0212 98.173828 118.02148 z " />
    <g
       id="path21"
       style="fill:#e0e28c;fill-opacity:1;stroke:none">
      <path
         style="color:#000000;fill:#e0e28c;stroke-linecap:round;stroke-linejoin:round;-inkscape-stroke:none;fill-opacity:1;stroke:none"
         d="M 82.070312,100.28516 C 68.933411,111.09666 63.347561,117.9942 48.992188,128 h 17.697265 c 6.118334,-5.10762 10.950631,-9.72628 16.431641,-14.72852 z"
         id="path10" />
      <path
         style="color:#000000;fill:#e0e28c;fill-opacity:1;stroke:none;stroke-linecap:round;stroke-linejoin:round;-inkscape-stroke:none"
         d="m 82.701172,98.796875 c -0.554359,-0.234838 -1.193282,-0.142273 -1.658203,0.240234 -13.223786,10.883001 -18.743807,17.717741 -32.97461,27.636721 -0.324285,0.22624 -0.625298,0.84149 -0.625298,0.84149 L 47.437136,128 h 21.850048 c 0,0 9.459271,-8.548 14.923753,-13.53516 0.369161,-0.33707 0.561676,-0.82593 0.521485,-1.32421 L 83.681641,100.1543 c -0.04887,-0.599631 -0.426588,-1.12256 -0.980469,-1.357425 z m -1.982422,4.832035 0.726562,8.97265 c -5.116552,4.68246 -9.734862,9.04542 -15.375,13.78125 H 53.84375 c 10.540914,-7.82379 16.974685,-14.3538 26.875,-22.7539 z"
         id="path11"
         sodipodi:nodetypes="ccccccccccccccc" />
    </g>
    <circle
       style="fill:#e2c48c;fill-opacity:1;stroke:none;stroke-width:3.87089;stroke-linecap:round;stroke-linejoin:round;stroke-dasharray:none;stroke-opacity:1"
       id="path22"
       cx="76.226212"
       cy="108.94866"
       r="2.2682161" />
    <circle
       style="fill:#e2c48c;fill-opacity:1;stroke:none;stroke-width:3.87089;stroke-linecap:round;stroke-linejoin:round;stroke-dasharray:none;stroke-opacity:1"
       id="circle22"
       cx="75.087608"
       cy="116.15205"
       r="2.2682161" />
    <circle
       style="fill:#e2c48c;fill-opacity:1;stroke:none;stroke-width:3.87089;stroke-linecap:round;stroke-linejoin:round;stroke-dasharray:none;stroke-opacity:1"
       id="circle23"
       cx="64.530464"
       cy="119.64402"
       r="2.2682161" />
    <path
       style="fill:#e7e0c6;fill-opacity:1;stroke:none;stroke-width:2.22331;stroke-linecap:round;stroke-linejoin:round;stroke-dasharray:none;stroke-opacity:1"
       d="M 33.070136,72.440741 C 39.820976,56.927044 35.542162,36.725306 68.373665,38.686211 101.20517,40.647119 92.542961,58.06426 97.490254,75.857731 102.2598,93.011938 85.665701,102.01484 64.40435,100.80358 43.143009,99.592236 26.438337,87.680859 33.070136,72.440741 Z"
       id="path2-3"
       sodipodi:nodetypes="szszs" />
    <path
       style="fill:none;fill-opacity:1;stroke:#524419;stroke-width:2.22331;stroke-linecap:round;stroke-linejoin:round;stroke-dasharray:none;stroke-opacity:1"
       d="m 65.121375,80.372292 -0.317511,4.352975"
       id="path8"
       sodipodi:nodetypes="cc" />
    <path
       style="fill:none;fill-opacity:1;stroke:#524419;stroke-width:2.22331;stroke-linecap:round;stroke-linejoin:round;stroke-dasharray:none;stroke-opacity:1"
       d="m 60.838417,85.624476 3.911544,-0.959966 4.032117,1.837103"
       id="path9"
       sodipodi:nodetypes="ccc" />
    <path
       style="fill:none;fill-opacity:1;stroke:#524419;stroke-width:4.71375;stroke-linecap:round;stroke-linejoin:round;stroke-dasharray:none;stroke-opacity:1"
       d="m 80.031454,71.204275 -0.336401,6.295127"
       id="path10-2" />
    <path
       style="fill:none;fill-opacity:1;stroke:#524419;stroke-width:4.71375;stroke-linecap:round;stroke-linejoin:round;stroke-dasharray:none;stroke-opacity:1"
       d="m 51.08878,70.075085 -0.336399,6.295128"
       id="path10-2-7" />
    <path
       style="fill:none;fill-opacity:1;stroke:#524419;stroke-width:2.22331;stroke-linecap:round;stroke-linejoin:round;stroke-dasharray:none;stroke-opacity:1"
       d="m 63.452962,79.412018 c 0.986703,0.248128 2.419763,0.376553 3.412313,0.175036"
       id="path12"
       sodipodi:nodetypes="cc" />
    <path
       style="fill:#e7e0c6;fill-opacity:1;stroke:none;stroke-width:2.65056;stroke-linecap:round;stroke-linejoin:round;stroke-dasharray:none;stroke-opacity:1"
       d="m 41.628326,48.123831 c 0,0 -8.909304,-33.732817 -0.686957,-36.181178 8.11573,-2.4166124 18.331379,27.975019 18.331379,27.975019"
       id="path14"
       sodipodi:nodetypes="csc" />
    <path
       style="fill:#e7e0c6;fill-opacity:1;stroke:none;stroke-width:2.65056;stroke-linecap:round;stroke-linejoin:round;stroke-dasharray:none;stroke-opacity:1"
       d="m 89.078331,56.011906 c 0,0 17.778829,-30.019855 10.537053,-34.619645 -7.147877,-4.540147 -25.271423,21.908818 -25.271423,21.908818"
       id="path14-6"
       sodipodi:nodetypes="csc" />
    <path
       style="fill:#e2c48c;fill-opacity:1;stroke:#e2c48c;stroke-width:3.23391;stroke-linecap:round;stroke-linejoin:round;stroke-dasharray:none;stroke-opacity:1"
       d="m 81.278955,34.723983 -2.674658,3.372104 c 3.286251,5.940517 7.126163,8.120417 13.1103,11.145791 l 3.018284,-4.2319 C 88.789712,41.622695 84.562897,38.858801 81.278955,34.723983 Z"
       id="path23"
       sodipodi:nodetypes="ccccc" />
    <path
       style="fill:#deba79;fill-opacity:1;stroke:#deba79;stroke-width:3.23391;stroke-linecap:round;stroke-linejoin:round;stroke-dasharray:none;stroke-opacity:1"
       d="m 86.642745,42.332394 c 4.541046,0.294434 5.541973,9.015392 5.541973,9.015392 0,0 -4.91189,3.790007 -6.352477,1.481882 -1.440583,-2.308126 0.39022,-10.376394 0.39022,-10.376394 z"
       id="path24-0"
       sodipodi:nodetypes="ccscc" />
    <path
       style="fill:#dfbd7e;fill-opacity:1;stroke:#dfbd7e;stroke-width:3.23391;stroke-linecap:round;stroke-linejoin:round;stroke-dasharray:none;stroke-opacity:1"
       d="m 86.561763,41.849779 c -2.967141,-3.450196 -10.378004,2.0523 -10.378004,2.0523 0,0 -0.07236,6.203676 2.638023,5.9658 2.710378,-0.237872 7.415417,-6.006042 7.415417,-6.006042 z"
       id="path24"
       sodipodi:nodetypes="ccscc" />
  </g>
</svg>
